<svg width="30" height="29" viewBox="0 0 30 29" fill="none" xmlns="http://www.w3.org/2000/svg">
<path d="M0 3.75C0 2.75544 0.395088 1.80161 1.09835 1.09835C1.80161 0.395088 2.75544 0 3.75 0H16.875C17.8696 0 18.8234 0.395088 19.5266 1.09835C20.2299 1.80161 20.625 2.75544 20.625 3.75V11.25C20.625 12.2446 20.2299 13.1984 19.5266 13.9016C18.8234 14.6049 17.8696 15 16.875 15H13.125L7.5 20.625V15H3.75C2.75544 15 1.80161 14.6049 1.09835 13.9016C0.395088 13.1984 0 12.2446 0 11.25V3.75Z" fill="white"/>
<path d="M24.375 7.5V11.25C24.375 13.2391 23.5848 15.1468 22.1783 16.5533C20.7718 17.9598 18.8641 18.75 16.875 18.75H14.6775L11.3663 22.0631C11.8913 22.3425 12.4894 22.5 13.125 22.5H16.875L22.5 28.125V22.5H26.25C27.2446 22.5 28.1984 22.1049 28.9017 21.4016C29.6049 20.6984 30 19.7446 30 18.75V11.25C30 10.2554 29.6049 9.30161 28.9017 8.59835C28.1984 7.89509 27.2446 7.5 26.25 7.5H24.375Z" fill="white"/>
</svg>
