<svg width="45" height="45" viewBox="0 0 45 45" fill="none" xmlns="http://www.w3.org/2000/svg">
<circle cx="22.5" cy="22.5" r="21.5" stroke="white" stroke-width="2"/>
<path d="M34.8586 20.347L34.7352 19.8233H23.3528V24.6408H30.1536C29.4475 27.9937 26.1711 29.7586 23.4947 29.7586C21.5474 29.7586 19.4947 28.9395 18.1361 27.6229C17.4193 26.9172 16.8487 26.077 16.457 25.1505C16.0654 24.2239 15.8603 23.2292 15.8535 22.2233C15.8535 20.1941 16.7655 18.1644 18.0924 16.8292C19.4194 15.4941 21.4235 14.747 23.4161 14.747C25.6982 14.747 27.3337 15.9588 27.9453 16.5114L31.3686 13.1061C30.3644 12.2236 27.6056 10 23.3058 10C19.9884 10 16.8075 11.2707 14.4823 13.5883C12.1877 15.8703 11 19.1702 11 22.2321C11 25.2939 12.1238 28.4289 14.3474 30.729C16.7234 33.182 20.0883 34.4642 23.5532 34.4642C26.7057 34.4642 29.6938 33.2289 31.8235 30.9879C33.9171 28.7817 35 25.7291 35 22.5291C35 21.182 34.8646 20.382 34.8586 20.347Z" fill="white"/>
</svg>
