<svg width="26" height="28" viewBox="0 0 26 28" fill="none" xmlns="http://www.w3.org/2000/svg">
<path d="M25.3994 28L25.4175 3.61362C25.4175 2.12826 24.8184 0.7981 23.8925 9.56688e-08L12.7088 -3.76956e-08L1.52505 -1.7106e-07C0.599128 0.7981 3.08517e-07 2.12826 2.90805e-07 3.61362L0.0181558 28L12.7088 17.27L25.3994 28Z" fill="#007FDE"/>
<path d="M7.37326 3.81505C7.2584 3.9286 7.16728 4.06386 7.10521 4.21297C7.04314 4.36208 7.01136 4.52205 7.01172 4.68356L7.01172 8.05052C7.01213 8.27138 7.09963 8.48317 7.25521 8.63993L13.9847 15.3708C14.2149 15.6005 14.5267 15.7295 14.8519 15.7295C15.177 15.7295 15.4889 15.6005 15.719 15.3708L18.9236 12.1663C19.1533 11.9361 19.2824 11.6241 19.2824 11.2989C19.2824 10.9736 19.1533 10.6617 18.9236 10.4315L12.1968 3.7033C12.0403 3.5474 11.8285 3.4596 11.6076 3.45899L8.23876 3.45899C8.07809 3.45799 7.91883 3.48896 7.77025 3.55009C7.62166 3.61121 7.48671 3.70128 7.37326 3.81505V3.81505ZM10.5175 6.08835C10.5175 6.2617 10.4661 6.43115 10.3698 6.57529C10.2735 6.71942 10.1366 6.83175 9.97649 6.89809C9.81634 6.96443 9.64011 6.98179 9.4701 6.94797C9.30008 6.91415 9.14391 6.83067 9.02134 6.7081C8.89876 6.58553 8.81529 6.42936 8.78147 6.25934C8.74765 6.08933 8.76501 5.9131 8.83135 5.75295C8.89768 5.5928 9.01002 5.45591 9.15415 5.35961C9.29829 5.2633 9.46774 5.2119 9.64109 5.2119C9.87354 5.2119 10.0965 5.30424 10.2608 5.46861C10.4252 5.63297 10.5175 5.8559 10.5175 6.08835Z" fill="white"/>
</svg>
