<svg width="79" height="14" viewBox="0 0 79 14" fill="none" xmlns="http://www.w3.org/2000/svg">
<path d="M11.1592 13.8235C11.0609 13.8239 10.9651 13.7933 10.8853 13.736L7.13388 11.0163L3.38249 13.736C3.30235 13.7942 3.20579 13.8253 3.10678 13.8249C3.00778 13.8246 2.91145 13.7927 2.83173 13.734C2.75201 13.6753 2.69302 13.5928 2.6633 13.4983C2.63358 13.4039 2.63467 13.3024 2.6664 13.2087L4.1295 8.87506L0.337568 6.27466C0.255432 6.2184 0.193441 6.13735 0.160651 6.04334C0.127862 5.94934 0.125993 5.84731 0.155317 5.75217C0.184642 5.65703 0.243623 5.57376 0.323643 5.51452C0.403663 5.45529 0.500529 5.4232 0.600087 5.42294H5.27817L6.68994 1.07825C6.72035 0.984453 6.77969 0.902696 6.85945 0.844711C6.9392 0.786726 7.03528 0.755493 7.13388 0.755493C7.23249 0.755493 7.32857 0.786726 7.40832 0.844711C7.48808 0.902696 7.54742 0.984453 7.57783 1.07825L8.9896 5.4244H13.6677C13.7674 5.42435 13.8644 5.45622 13.9447 5.51534C14.025 5.57446 14.0842 5.65772 14.1137 5.75293C14.1432 5.84815 14.1415 5.95031 14.1087 6.04446C14.0759 6.1386 14.0139 6.21979 13.9317 6.27612L10.1383 8.87506L11.6005 13.2075C11.6242 13.2776 11.6308 13.3524 11.6199 13.4256C11.609 13.4989 11.5808 13.5684 11.5377 13.6286C11.4946 13.6888 11.4378 13.7379 11.372 13.7718C11.3061 13.8057 11.2332 13.8234 11.1592 13.8235Z" fill="#008FEE"/>
<path d="M27.1592 13.8235C27.0609 13.8239 26.9651 13.7933 26.8853 13.736L23.1339 11.0163L19.3825 13.736C19.3023 13.7942 19.2058 13.8253 19.1068 13.8249C19.0078 13.8246 18.9114 13.7927 18.8317 13.734C18.752 13.6753 18.693 13.5928 18.6633 13.4983C18.6336 13.4039 18.6347 13.3024 18.6664 13.2087L20.1295 8.87506L16.3376 6.27466C16.2554 6.2184 16.1934 6.13735 16.1607 6.04334C16.1279 5.94934 16.126 5.84731 16.1553 5.75217C16.1846 5.65703 16.2436 5.57376 16.3236 5.51452C16.4037 5.45529 16.5005 5.4232 16.6001 5.42294H21.2782L22.6899 1.07825C22.7203 0.984453 22.7797 0.902696 22.8594 0.844711C22.9392 0.786726 23.0353 0.755493 23.1339 0.755493C23.2325 0.755493 23.3286 0.786726 23.4083 0.844711C23.4881 0.902696 23.5474 0.984453 23.5778 1.07825L24.9896 5.4244H29.6677C29.7674 5.42435 29.8644 5.45622 29.9447 5.51534C30.025 5.57446 30.0842 5.65772 30.1137 5.75293C30.1432 5.84815 30.1415 5.95031 30.1087 6.04446C30.0759 6.1386 30.0139 6.21979 29.9317 6.27612L26.1383 8.87506L27.6005 13.2075C27.6242 13.2776 27.6308 13.3524 27.6199 13.4256C27.609 13.4989 27.5808 13.5684 27.5377 13.6286C27.4946 13.6888 27.4378 13.7379 27.372 13.7718C27.3061 13.8057 27.2332 13.8234 27.1592 13.8235Z" fill="#008FEE"/>
<path d="M43.1592 13.8235C43.0609 13.8239 42.9651 13.7933 42.8853 13.736L39.1339 11.0163L35.3825 13.736C35.3023 13.7942 35.2058 13.8253 35.1068 13.8249C35.0078 13.8246 34.9114 13.7927 34.8317 13.734C34.752 13.6753 34.693 13.5928 34.6633 13.4983C34.6336 13.4039 34.6347 13.3024 34.6664 13.2087L36.1295 8.87506L32.3376 6.27466C32.2554 6.2184 32.1934 6.13735 32.1607 6.04334C32.1279 5.94934 32.126 5.84731 32.1553 5.75217C32.1846 5.65703 32.2436 5.57376 32.3236 5.51452C32.4037 5.45529 32.5005 5.4232 32.6001 5.42294H37.2782L38.6899 1.07825C38.7203 0.984453 38.7797 0.902696 38.8594 0.844711C38.9392 0.786726 39.0353 0.755493 39.1339 0.755493C39.2325 0.755493 39.3286 0.786726 39.4083 0.844711C39.4881 0.902696 39.5474 0.984453 39.5778 1.07825L40.9896 5.4244H45.6677C45.7674 5.42435 45.8644 5.45622 45.9447 5.51534C46.025 5.57446 46.0842 5.65772 46.1137 5.75293C46.1432 5.84815 46.1415 5.95031 46.1087 6.04446C46.0759 6.1386 46.0139 6.21979 45.9317 6.27612L42.1383 8.87506L43.6005 13.2075C43.6242 13.2776 43.6308 13.3524 43.6199 13.4256C43.609 13.4989 43.5808 13.5684 43.5377 13.6286C43.4946 13.6888 43.4378 13.7379 43.372 13.7718C43.3061 13.8057 43.2332 13.8234 43.1592 13.8235Z" fill="#008FEE"/>
<path d="M59.1592 13.8235C59.0609 13.8239 58.9651 13.7933 58.8853 13.736L55.1339 11.0163L51.3825 13.736C51.3023 13.7942 51.2058 13.8253 51.1068 13.8249C51.0078 13.8246 50.9114 13.7927 50.8317 13.734C50.752 13.6753 50.693 13.5928 50.6633 13.4983C50.6336 13.4039 50.6347 13.3024 50.6664 13.2087L52.1295 8.87506L48.3376 6.27466C48.2554 6.2184 48.1934 6.13735 48.1607 6.04334C48.1279 5.94934 48.126 5.84731 48.1553 5.75217C48.1846 5.65703 48.2436 5.57376 48.3236 5.51452C48.4037 5.45529 48.5005 5.4232 48.6001 5.42294H53.2782L54.6899 1.07825C54.7203 0.984453 54.7797 0.902696 54.8594 0.844711C54.9392 0.786726 55.0353 0.755493 55.1339 0.755493C55.2325 0.755493 55.3286 0.786726 55.4083 0.844711C55.4881 0.902696 55.5474 0.984453 55.5778 1.07825L56.9896 5.4244H61.6677C61.7674 5.42435 61.8644 5.45622 61.9447 5.51534C62.025 5.57446 62.0842 5.65772 62.1137 5.75293C62.1432 5.84815 62.1415 5.95031 62.1087 6.04446C62.0759 6.1386 62.0139 6.21979 61.9317 6.27612L58.1383 8.87506L59.6005 13.2075C59.6242 13.2776 59.6308 13.3524 59.6199 13.4256C59.609 13.4989 59.5808 13.5684 59.5377 13.6286C59.4946 13.6888 59.4378 13.7379 59.372 13.7718C59.3061 13.8057 59.2332 13.8234 59.1592 13.8235Z" fill="#008FEE"/>
<path d="M75.1592 13.8235C75.0609 13.8239 74.9651 13.7933 74.8853 13.736L71.1339 11.0163L67.3825 13.736C67.3023 13.7942 67.2058 13.8253 67.1068 13.8249C67.0078 13.8246 66.9114 13.7927 66.8317 13.734C66.752 13.6753 66.693 13.5928 66.6633 13.4983C66.6336 13.4039 66.6347 13.3024 66.6664 13.2087L68.1295 8.87506L64.3376 6.27466C64.2554 6.2184 64.1934 6.13735 64.1607 6.04334C64.1279 5.94934 64.126 5.84731 64.1553 5.75217C64.1846 5.65703 64.2436 5.57376 64.3236 5.51452C64.4037 5.45529 64.5005 5.4232 64.6001 5.42294H69.2782L70.6899 1.07825C70.7203 0.984453 70.7797 0.902696 70.8594 0.844711C70.9392 0.786726 71.0353 0.755493 71.1339 0.755493C71.2325 0.755493 71.3286 0.786726 71.4083 0.844711C71.4881 0.902696 71.5474 0.984453 71.5778 1.07825L72.9896 5.4244H77.6677C77.7674 5.42435 77.8644 5.45622 77.9447 5.51534C78.025 5.57446 78.0842 5.65772 78.1137 5.75293C78.1432 5.84815 78.1415 5.95031 78.1087 6.04446C78.0759 6.1386 78.0139 6.21979 77.9317 6.27612L74.1383 8.87506L75.6005 13.2075C75.6242 13.2776 75.6308 13.3524 75.6199 13.4256C75.609 13.4989 75.5808 13.5684 75.5377 13.6286C75.4946 13.6888 75.4378 13.7379 75.372 13.7718C75.3061 13.8057 75.2332 13.8234 75.1592 13.8235Z" fill="#008FEE"/>
</svg>
