<svg width="45" height="45" viewBox="0 0 45 45" fill="none" xmlns="http://www.w3.org/2000/svg">
<circle cx="22.5" cy="22.5" r="21.5" stroke="white" stroke-width="2"/>
<path d="M35 15.275C34.0997 15.6662 33.1472 15.9239 32.1725 16.04C33.1968 15.4402 33.9672 14.4873 34.339 13.36C33.3705 13.9263 32.3128 14.3236 31.211 14.535C30.747 14.0488 30.1891 13.662 29.571 13.3981C28.9529 13.1342 28.2876 12.9988 27.6155 13C24.8945 13 22.6925 15.17 22.6925 17.845C22.6906 18.2171 22.7332 18.5881 22.8195 18.95C20.8683 18.8585 18.9578 18.3608 17.21 17.4886C15.4622 16.6165 13.9157 15.3891 12.6695 13.885C12.2323 14.6221 12.0011 15.463 12 16.32C12 18 12.8765 19.485 14.2 20.355C13.4159 20.3364 12.6478 20.1289 11.961 19.75V19.81C11.961 22.16 13.661 24.115 15.911 24.56C15.4879 24.6728 15.0519 24.7299 14.614 24.73C14.3033 24.7306 13.9933 24.7004 13.6885 24.64C14.314 26.565 16.1345 27.965 18.291 28.005C16.5387 29.3555 14.3873 30.0854 12.175 30.08C11.7823 30.0794 11.39 30.0561 11 30.01C13.2506 31.4471 15.8667 32.2073 18.537 32.2C27.605 32.2 32.559 24.815 32.559 18.41C32.559 18.2 32.5535 17.99 32.5435 17.785C33.505 17.101 34.3369 16.2511 35 15.275V15.275Z" fill="white"/>
</svg>
