<svg width="50" height="50" viewBox="0 0 50 50" fill="none" xmlns="http://www.w3.org/2000/svg">
<path d="M25 0C11.1942 0 0 11.1942 0 25C0 38.8058 11.1942 50 25 50C38.8058 50 50 38.8058 50 25C50 11.1942 38.8058 0 25 0ZM25 45.7589C13.5379 45.7589 4.24107 36.4621 4.24107 25C4.24107 13.5379 13.5379 4.24107 25 4.24107C36.4621 4.24107 45.7589 13.5379 45.7589 25C45.7589 36.4621 36.4621 45.7589 25 45.7589Z" fill="#49BE55"/>
<path d="M34.7489 32.0647L26.7913 26.3114V12.5C26.7913 12.2545 26.5904 12.0536 26.3449 12.0536H23.6607C23.4152 12.0536 23.2143 12.2545 23.2143 12.5V27.8683C23.2143 28.0134 23.2812 28.1473 23.3984 28.231L32.6283 34.9609C32.8292 35.106 33.1083 35.0614 33.2533 34.8661L34.8493 32.6897C34.9944 32.4833 34.9498 32.2042 34.7489 32.0647V32.0647Z" fill="#49BE55"/>
</svg>
