<svg width="50" height="90" viewBox="0 0 50 90" fill="none" xmlns="http://www.w3.org/2000/svg">
<path d="M46.875 0.834534H3.125C2.2962 0.834534 1.50134 1.16377 0.915292 1.74983C0.32924 2.33588 0 3.13073 0 3.95953V86.5984C0 87.4272 0.32924 88.2221 0.915292 88.8081C1.50134 89.3942 2.2962 89.7234 3.125 89.7234H46.875C47.7038 89.7234 48.4987 89.3942 49.0847 88.8081C49.6708 88.2221 50 87.4272 50 86.5984V3.95953C50 3.13073 49.6708 2.33588 49.0847 1.74983C48.4987 1.16377 47.7038 0.834534 46.875 0.834534V0.834534ZM6.25 78.6123V11.9456H43.75V78.6123H6.25Z" fill="#A174DB"/>
</svg>
