<svg width="50" height="50" viewBox="0 0 50 50" fill="none" xmlns="http://www.w3.org/2000/svg">
<circle cx="25" cy="25" r="23.5" stroke="black" stroke-opacity="0.6" stroke-width="3"/>
<path d="M24.9966 18.5862C21.4474 18.5862 18.5831 21.4506 18.5831 24.9998C18.5831 28.549 21.4474 31.4134 24.9966 31.4134C28.5458 31.4134 31.4102 28.549 31.4102 24.9998C31.4102 21.4506 28.5458 18.5862 24.9966 18.5862ZM24.9966 29.1681C22.7014 29.1681 20.8283 27.295 20.8283 24.9998C20.8283 22.7045 22.7014 20.8314 24.9966 20.8314C27.2919 20.8314 29.165 22.7045 29.165 24.9998C29.165 27.295 27.2919 29.1681 24.9966 29.1681ZM31.6729 16.8288C30.8442 16.8288 30.175 17.498 30.175 18.3266C30.175 19.1553 30.8442 19.8245 31.6729 19.8245C32.5016 19.8245 33.1708 19.1584 33.1708 18.3266C33.171 18.1299 33.1324 17.935 33.0572 17.7531C32.9821 17.5713 32.8717 17.4061 32.7326 17.2669C32.5935 17.1278 32.4282 17.0175 32.2464 16.9423C32.0646 16.8671 31.8697 16.8285 31.6729 16.8288V16.8288ZM37.4986 24.9998C37.4986 23.2736 37.5142 21.5631 37.4173 19.8401C37.3204 17.8388 36.8638 16.0626 35.4004 14.5992C33.9338 13.1326 32.1607 12.6792 30.1594 12.5822C28.4333 12.4853 26.7228 12.5009 24.9998 12.5009C23.2736 12.5009 21.5631 12.4853 19.8401 12.5822C17.8388 12.6792 16.0626 13.1357 14.5992 14.5992C13.1326 16.0658 12.6792 17.8388 12.5822 19.8401C12.4853 21.5663 12.5009 23.2768 12.5009 24.9998C12.5009 26.7228 12.4853 28.4364 12.5822 30.1594C12.6792 32.1607 13.1357 33.9369 14.5992 35.4003C16.0658 36.8669 17.8388 37.3204 19.8401 37.4173C21.5663 37.5142 23.2768 37.4986 24.9998 37.4986C26.7259 37.4986 28.4364 37.5142 30.1594 37.4173C32.1607 37.3204 33.9369 36.8638 35.4004 35.4003C36.8669 33.9338 37.3204 32.1607 37.4173 30.1594C37.5174 28.4364 37.4986 26.7259 37.4986 24.9998V24.9998ZM34.7468 32.3734C34.5185 32.9425 34.2433 33.3678 33.8024 33.8056C33.3615 34.2465 32.9394 34.5216 32.3702 34.7499C30.7254 35.4035 26.8197 35.2565 24.9966 35.2565C23.1736 35.2565 19.2647 35.4035 17.6199 34.7531C17.0508 34.5248 16.6255 34.2496 16.1877 33.8087C15.7468 33.3678 15.4716 32.9456 15.2434 32.3765C14.5929 30.7285 14.7399 26.8228 14.7399 24.9998C14.7399 23.1767 14.5929 19.2679 15.2434 17.623C15.4716 17.0539 15.7468 16.6286 16.1877 16.1909C16.6286 15.7531 17.0508 15.4748 17.6199 15.2465C19.2647 14.5961 23.1736 14.743 24.9966 14.743C26.8197 14.743 30.7285 14.5961 32.3734 15.2465C32.9425 15.4748 33.3678 15.7499 33.8056 16.1909C34.2465 16.6318 34.5216 17.0539 34.7499 17.623C35.4004 19.2679 35.2534 23.1767 35.2534 24.9998C35.2534 26.8228 35.4004 30.7285 34.7468 32.3734Z" fill="black" fill-opacity="0.6"/>
</svg>
