<svg width="100" height="100" viewBox="0 0 100 100" fill="none" xmlns="http://www.w3.org/2000/svg">
<circle cx="50" cy="50" r="50" fill="url(#paint0_linear)"/>
<path d="M49.9933 37.1724C42.8949 37.1724 37.1661 42.9011 37.1661 49.9995C37.1661 57.0979 42.8949 62.8267 49.9933 62.8267C57.0917 62.8267 62.8205 57.0979 62.8205 49.9995C62.8205 42.9011 57.0917 37.1724 49.9933 37.1724ZM49.9933 58.3363C45.4028 58.3363 41.6566 54.59 41.6566 49.9995C41.6566 45.409 45.4028 41.6628 49.9933 41.6628C54.5838 41.6628 58.33 45.409 58.33 49.9995C58.33 54.59 54.5838 58.3363 49.9933 58.3363ZM63.3458 33.6575C61.6885 33.6575 60.3501 34.9959 60.3501 36.6533C60.3501 38.3106 61.6885 39.649 63.3458 39.649C65.0031 39.649 66.3415 38.3169 66.3415 36.6533C66.342 36.2597 66.2649 35.8699 66.1145 35.5063C65.9641 35.1426 65.7435 34.8121 65.4652 34.5339C65.1869 34.2556 64.8565 34.035 64.4928 33.8846C64.1291 33.7342 63.7393 33.6571 63.3458 33.6575V33.6575ZM74.9972 49.9995C74.9972 46.5473 75.0285 43.1263 74.8346 39.6803C74.6407 35.6776 73.7276 32.1253 70.8007 29.1984C67.8675 26.2652 64.3214 25.3583 60.3188 25.1645C56.8665 24.9706 53.4455 25.0019 49.9995 25.0019C46.5473 25.0019 43.1263 24.9706 39.6803 25.1645C35.6776 25.3583 32.1253 26.2714 29.1984 29.1984C26.2652 32.1315 25.3583 35.6776 25.1645 39.6803C24.9706 43.1325 25.0019 46.5535 25.0019 49.9995C25.0019 53.4455 24.9706 56.8728 25.1645 60.3188C25.3583 64.3214 26.2714 67.8738 29.1984 70.8007C32.1315 73.7339 35.6776 74.6407 39.6803 74.8346C43.1325 75.0285 46.5535 74.9972 49.9995 74.9972C53.4518 74.9972 56.8728 75.0285 60.3188 74.8346C64.3214 74.6407 67.8738 73.7276 70.8007 70.8007C73.7339 67.8675 74.6407 64.3214 74.8346 60.3188C75.0347 56.8728 74.9972 53.4518 74.9972 49.9995V49.9995ZM69.4936 64.7467C69.037 65.885 68.4867 66.7355 67.6049 67.6111C66.723 68.4929 65.8787 69.0433 64.7405 69.4998C61.4508 70.807 53.6394 70.513 49.9933 70.513C46.3471 70.513 38.5295 70.807 35.2398 69.5061C34.1016 69.0496 33.251 68.4992 32.3755 67.6174C31.4936 66.7355 30.9433 65.8912 30.4867 64.753C29.1859 61.4571 29.4798 53.6457 29.4798 49.9995C29.4798 46.3534 29.1859 38.5358 30.4867 35.2461C30.9433 34.1078 31.4936 33.2573 32.3755 32.3817C33.2573 31.5061 34.1016 30.9495 35.2398 30.493C38.5295 29.1921 46.3471 29.4861 49.9933 29.4861C53.6394 29.4861 61.4571 29.1921 64.7467 30.493C65.885 30.9495 66.7355 31.4999 67.6111 32.3817C68.4929 33.2635 69.0433 34.1078 69.4998 35.2461C70.8007 38.5358 70.5068 46.3534 70.5068 49.9995C70.5068 53.6457 70.8007 61.4571 69.4936 64.7467Z" fill="white"/>
<defs>
<linearGradient id="paint0_linear" x1="78" y1="14.5" x2="24" y2="86" gradientUnits="userSpaceOnUse">
<stop stop-color="#F0C578"/>
<stop offset="1" stop-color="#F09C76"/>
</linearGradient>
</defs>
</svg>
