<svg width="50" height="50" viewBox="0 0 50 50" fill="none" xmlns="http://www.w3.org/2000/svg">
<circle cx="25" cy="25" r="23.5" stroke="black" stroke-opacity="0.6" stroke-width="3"/>
<path d="M19.875 33H16.4766V20.3203H19.875V33ZM16.2773 17.0391C16.2773 16.5312 16.4453 16.1133 16.7812 15.7852C17.125 15.457 17.5898 15.293 18.1758 15.293C18.7539 15.293 19.2148 15.457 19.5586 15.7852C19.9023 16.1133 20.0742 16.5312 20.0742 17.0391C20.0742 17.5547 19.8984 17.9766 19.5469 18.3047C19.2031 18.6328 18.7461 18.7969 18.1758 18.7969C17.6055 18.7969 17.1445 18.6328 16.793 18.3047C16.4492 17.9766 16.2773 17.5547 16.2773 17.0391ZM25.793 20.3203L25.8984 21.7852C26.8047 20.6523 28.0195 20.0859 29.543 20.0859C30.8867 20.0859 31.8867 20.4805 32.543 21.2695C33.1992 22.0586 33.5352 23.2383 33.5508 24.8086V33H30.1641V24.8906C30.1641 24.1719 30.0078 23.6523 29.6953 23.332C29.3828 23.0039 28.8633 22.8398 28.1367 22.8398C27.1836 22.8398 26.4688 23.2461 25.9922 24.0586V33H22.6055V20.3203H25.793Z" fill="black" fill-opacity="0.6"/>
</svg>
