<svg width="100" height="100" viewBox="0 0 100 100" fill="none" xmlns="http://www.w3.org/2000/svg">
<circle cx="50" cy="50" r="50" fill="url(#paint0_linear)"/>
<path d="M37 71H27.9375V37.1875H37V71ZM27.4062 28.4375C27.4062 27.0833 27.8542 25.9688 28.75 25.0938C29.6667 24.2188 30.9062 23.7812 32.4688 23.7812C34.0104 23.7812 35.2396 24.2188 36.1562 25.0938C37.0729 25.9688 37.5312 27.0833 37.5312 28.4375C37.5312 29.8125 37.0625 30.9375 36.125 31.8125C35.2083 32.6875 33.9896 33.125 32.4688 33.125C30.9479 33.125 29.7188 32.6875 28.7812 31.8125C27.8646 30.9375 27.4062 29.8125 27.4062 28.4375ZM52.7812 37.1875L53.0625 41.0938C55.4792 38.0729 58.7188 36.5625 62.7812 36.5625C66.3646 36.5625 69.0312 37.6146 70.7812 39.7188C72.5312 41.8229 73.4271 44.9688 73.4688 49.1562V71H64.4375V49.375C64.4375 47.4583 64.0208 46.0729 63.1875 45.2188C62.3542 44.3438 60.9688 43.9062 59.0312 43.9062C56.4896 43.9062 54.5833 44.9896 53.3125 47.1562V71H44.2812V37.1875H52.7812Z" fill="white"/>
<defs>
<linearGradient id="paint0_linear" x1="78" y1="14.5" x2="24" y2="86" gradientUnits="userSpaceOnUse">
<stop stop-color="#FFA3C9"/>
<stop offset="1" stop-color="#F13997"/>
</linearGradient>
</defs>
</svg>
