<svg width="54" height="76" viewBox="0 0 54 76" fill="none" xmlns="http://www.w3.org/2000/svg">
<path d="M26.9375 1.52203C13.1354 1.52203 1.9375 12.18 1.9375 25.3068C1.9375 40.4109 18.6042 64.3467 24.724 72.614C24.978 72.963 25.3109 73.247 25.6956 73.4428C26.0803 73.6386 26.5058 73.7407 26.9375 73.7407C27.3692 73.7407 27.7947 73.6386 28.1794 73.4428C28.5641 73.247 28.897 72.963 29.151 72.614C35.2708 64.3502 51.9375 40.4231 51.9375 25.3068C51.9375 12.18 40.7396 1.52203 26.9375 1.52203Z" stroke="#A174DB" stroke-width="3" stroke-linecap="round" stroke-linejoin="round"/>
<path d="M26.9375 34.8554C31.5399 34.8554 35.2708 31.1244 35.2708 26.522C35.2708 21.9197 31.5399 18.1887 26.9375 18.1887C22.3351 18.1887 18.6042 21.9197 18.6042 26.522C18.6042 31.1244 22.3351 34.8554 26.9375 34.8554Z" stroke="#A174DB" stroke-width="3" stroke-linecap="round" stroke-linejoin="round"/>
</svg>
