<svg width="100" height="100" viewBox="0 0 100 100" fill="none" xmlns="http://www.w3.org/2000/svg">
<circle cx="50" cy="50" r="50" fill="url(#paint0_linear)"/>
<path d="M73.2372 54.1036C73.4935 52.6972 73.631 51.2595 73.631 49.8218C73.631 46.6339 73.006 43.5398 71.7746 40.6332C70.5869 37.8203 68.8804 35.295 66.7114 33.126C64.5605 30.9696 62.0108 29.2521 59.2043 28.0691C56.2914 26.8377 53.2035 26.2126 50.0156 26.2126C48.5154 26.2126 47.009 26.3564 45.5463 26.6377C43.5224 25.5652 41.2673 25.003 38.9768 25C35.2451 25 31.7321 26.4564 29.0943 29.0943C27.7927 30.3892 26.7606 31.9294 26.0579 33.6256C25.3551 35.3219 24.9956 37.1406 25 38.9767C25 41.352 25.6126 43.6898 26.7565 45.7526C26.5252 47.0902 26.4002 48.4591 26.4002 49.8218C26.4002 53.0097 27.0253 56.1038 28.2567 59.0104C29.4443 61.8233 31.1445 64.3486 33.3136 66.5176C35.4826 68.6866 38.0079 70.3868 40.8207 71.5745C43.7336 72.8059 46.8215 73.431 50.0094 73.431C51.397 73.431 52.7847 73.306 54.1474 73.0622C56.2414 74.2436 58.6042 74.8749 61.0232 74.8749C64.7549 74.8749 68.2679 73.4247 70.9057 70.7806C73.5498 68.1428 75 64.6299 75 60.8982C75.0062 58.5229 74.3936 56.1788 73.2372 54.1036ZM67.7303 67.6052C65.9363 69.4055 63.5673 70.3806 61.0295 70.3806C59.398 70.3806 57.7916 69.9555 56.3664 69.1492L54.96 68.3553L53.366 68.6366C52.2534 68.8367 51.1283 68.9367 50.0156 68.9367C47.4278 68.9367 44.9337 68.4304 42.571 67.4302C40.3019 66.4739 38.2579 65.0987 36.4952 63.336C34.7503 61.597 33.3598 59.5357 32.401 57.2665C31.4008 54.9099 30.9008 52.4159 30.9008 49.8281C30.9008 48.7404 31.0008 47.6278 31.1883 46.5277L31.4633 44.9587L30.6882 43.5648C29.9065 42.1619 29.4955 40.5827 29.4943 38.9767C29.4943 36.4389 30.4757 34.0699 32.2697 32.2759C34.0699 30.4819 36.439 29.5006 38.9768 29.5006C40.5333 29.5048 42.0654 29.8888 43.4398 30.6194L44.84 31.357L46.3902 31.057C47.5716 30.832 48.7905 30.7132 50.0156 30.7132C52.6034 30.7132 55.0975 31.2195 57.454 32.2134C59.7356 33.176 61.7733 34.5512 63.5298 36.3076C65.2925 38.0641 66.6677 40.1081 67.6303 42.3834C68.6304 44.7399 69.1305 47.234 69.1305 49.8218C69.1305 50.972 69.0242 52.1346 68.8117 53.291L68.5179 54.8849L69.3055 56.2976C70.0931 57.704 70.5057 59.298 70.5057 60.9044C70.5057 63.4485 69.5243 65.8113 67.7303 67.6052V67.6052ZM54.4662 47.0777L48.9405 45.8526C46.8402 45.3713 44.4212 44.7399 44.4212 42.7584C44.4212 40.7769 46.1151 39.3893 49.178 39.3893C55.3475 39.3893 54.785 43.6273 57.8478 43.6273C59.4605 43.6273 60.8732 42.6772 60.8732 41.052C60.8732 37.2515 54.785 34.3949 49.6218 34.3949C44.0149 34.3949 38.0454 36.7765 38.0454 43.1147C38.0454 46.1651 39.133 49.4155 45.1463 50.9219L52.6097 52.7847C54.8662 53.341 55.435 54.6099 55.435 55.76C55.435 57.6665 53.5411 59.5293 50.1094 59.5293C43.4086 59.5293 44.3399 54.3724 40.752 54.3724C39.1393 54.3724 37.9704 55.485 37.9704 57.0665C37.9704 60.1543 41.7209 64.2798 50.1094 64.2798C58.0916 64.2798 62.0484 60.4356 62.0484 55.2787C62.0484 51.9596 60.5169 48.4279 54.4662 47.0777Z" fill="white"/>
<defs>
<linearGradient id="paint0_linear" x1="78" y1="14.5" x2="24" y2="86" gradientUnits="userSpaceOnUse">
<stop stop-color="#8FF2AA"/>
<stop offset="1" stop-color="#31C47B"/>
</linearGradient>
</defs>
</svg>
