<svg width="50" height="50" viewBox="0 0 50 50" fill="none" xmlns="http://www.w3.org/2000/svg">
<circle cx="25" cy="25" r="23.5" stroke="black" stroke-opacity="0.6" stroke-width="3"/>
<path d="M36.6186 27.0518C36.7468 26.3486 36.8155 25.6297 36.8155 24.9109C36.8155 23.317 36.503 21.7699 35.8873 20.3166C35.2935 18.9102 34.4402 17.6475 33.3557 16.563C32.2803 15.4848 31.0054 14.6261 29.6021 14.0346C28.1457 13.4189 26.6018 13.1063 25.0078 13.1063C24.2577 13.1063 23.5045 13.1782 22.7732 13.3189C21.7612 12.7826 20.6336 12.5015 19.4884 12.5C17.6225 12.5 15.8661 13.2282 14.5471 14.5471C13.8963 15.1946 13.3803 15.9647 13.0289 16.8128C12.6776 17.6609 12.4978 18.5703 12.5 19.4884C12.5 20.676 12.8063 21.8449 13.3783 22.8763C13.2626 23.5451 13.2001 24.2296 13.2001 24.9109C13.2001 26.5049 13.5126 28.0519 14.1283 29.5052C14.7222 30.9116 15.5723 32.1743 16.6568 33.2588C17.7413 34.3433 19.0039 35.1934 20.4104 35.7872C21.8668 36.4029 23.4107 36.7155 25.0047 36.7155C25.6985 36.7155 26.3924 36.653 27.0737 36.5311C28.1207 37.1218 29.3021 37.4374 30.5116 37.4374C32.3775 37.4374 34.1339 36.7124 35.4529 35.3903C36.7749 34.0714 37.5 32.3149 37.5 30.4491C37.5031 29.2614 37.1968 28.0894 36.6186 27.0518ZM33.8652 33.8026C32.9682 34.7027 31.7836 35.1903 30.5147 35.1903C29.699 35.1903 28.8958 34.9778 28.1832 34.5746L27.48 34.1777L26.683 34.3183C26.1267 34.4183 25.5641 34.4683 25.0078 34.4683C23.7139 34.4683 22.4669 34.2152 21.2855 33.7151C20.151 33.2369 19.129 32.5493 18.2476 31.668C17.3751 30.7985 16.6799 29.7678 16.2005 28.6332C15.7004 27.455 15.4504 26.2079 15.4504 24.914C15.4504 24.3702 15.5004 23.8139 15.5942 23.2638L15.7317 22.4794L15.3441 21.7824C14.9532 21.0809 14.7478 20.2914 14.7472 19.4884C14.7472 18.2195 15.2379 17.0349 16.1348 16.1379C17.035 15.241 18.2195 14.7503 19.4884 14.7503C20.2667 14.7524 21.0327 14.9444 21.7199 15.3097L22.42 15.6785L23.1951 15.5285C23.7858 15.416 24.3952 15.3566 25.0078 15.3566C26.3017 15.3566 27.5488 15.6098 28.727 16.1067C29.8678 16.588 30.8867 17.2756 31.7649 18.1538C32.6463 19.0321 33.3338 20.0541 33.8151 21.1917C34.3152 22.37 34.5652 23.617 34.5652 24.9109C34.5652 25.486 34.5121 26.0673 34.4058 26.6455L34.259 27.4425L34.6528 28.1488C35.0465 28.852 35.2528 29.649 35.2528 30.4522C35.2528 31.7242 34.7621 32.9056 33.8652 33.8026V33.8026ZM27.2331 23.5389L24.4702 22.9263C23.4201 22.6856 22.2106 22.37 22.2106 21.3792C22.2106 20.3885 23.0576 19.6946 24.589 19.6946C27.6738 19.6946 27.3925 21.8136 28.9239 21.8136C29.7303 21.8136 30.4366 21.3386 30.4366 20.526C30.4366 18.6258 27.3925 17.1975 24.8109 17.1975C22.0074 17.1975 19.0227 18.3882 19.0227 21.5574C19.0227 23.0826 19.5665 24.7078 22.5731 25.461L26.3048 26.3923C27.4331 26.6705 27.7175 27.3049 27.7175 27.88C27.7175 28.8333 26.7705 29.7646 25.0547 29.7646C21.7043 29.7646 22.17 27.1862 20.376 27.1862C19.5696 27.1862 18.9852 27.7425 18.9852 28.5332C18.9852 30.0772 20.8604 32.1399 25.0547 32.1399C29.0458 32.1399 31.0242 30.2178 31.0242 27.6394C31.0242 25.9798 30.2585 24.2139 27.2331 23.5389Z" fill="black" fill-opacity="0.6"/>
</svg>
